<svg width="12" height="12" viewBox="0 0 12 12" fill="none" xmlns="http://www.w3.org/2000/svg">
<g clip-path="url(#clip0_2_445)">
<path d="M4.99671 7.32513V8.1376C4.99482 8.3088 4.94898 8.47664 4.86358 8.62503C4.77819 8.77342 4.6561 8.89739 4.50903 8.98504C4.19681 9.21629 3.94282 9.51718 3.76726 9.86379C3.5917 10.2104 3.4994 10.5932 3.4977 10.9817" stroke="#FFB900" stroke-width="0.99934" stroke-linecap="round" stroke-linejoin="round"/>
<path d="M6.99538 7.32513V8.1376C6.99726 8.3088 7.0431 8.47664 7.1285 8.62503C7.21389 8.77342 7.33598 8.89739 7.48305 8.98504C7.79528 9.21629 8.04926 9.51718 8.22482 9.86379C8.40038 10.2104 8.49268 10.5932 8.49439 10.9817" stroke="#FFB900" stroke-width="0.99934" stroke-linecap="round" stroke-linejoin="round"/>
<path d="M8.99406 4.49701H9.74357C10.0749 4.49701 10.3926 4.3654 10.6269 4.13113C10.8611 3.89687 10.9927 3.57913 10.9927 3.24783C10.9927 2.91653 10.8611 2.5988 10.6269 2.36453C10.3926 2.13027 10.0749 1.99866 9.74357 1.99866H8.99406" stroke="#FFB900" stroke-width="0.99934" stroke-linecap="round" stroke-linejoin="round"/>
<path d="M1.99867 10.9927H9.99339" stroke="#FFB900" stroke-width="0.99934" stroke-linecap="round" stroke-linejoin="round"/>
<path d="M2.99802 4.49702C2.99802 5.29214 3.31388 6.0547 3.87612 6.61694C4.43835 7.17918 5.20091 7.49504 5.99604 7.49504C6.79116 7.49504 7.55372 7.17918 8.11596 6.61694C8.67819 6.0547 8.99406 5.29214 8.99406 4.49702V1.499C8.99406 1.36648 8.94141 1.23938 8.84771 1.14568C8.754 1.05197 8.62691 0.999329 8.49439 0.999329H3.49769C3.36517 0.999329 3.23807 1.05197 3.14437 1.14568C3.05066 1.23938 2.99802 1.36648 2.99802 1.499V4.49702Z" stroke="#FFB900" stroke-width="0.99934" stroke-linecap="round" stroke-linejoin="round"/>
<path d="M2.99802 4.49701H2.24852C1.91722 4.49701 1.59948 4.3654 1.36522 4.13113C1.13095 3.89687 0.999344 3.57913 0.999344 3.24783C0.999344 2.91653 1.13095 2.5988 1.36522 2.36453C1.59948 2.13027 1.91722 1.99866 2.24852 1.99866H2.99802" stroke="#FFB900" stroke-width="0.99934" stroke-linecap="round" stroke-linejoin="round"/>
</g>
<defs>
<clipPath id="clip0_2_445">
<rect width="11.9921" height="11.9921" fill="white"/>
</clipPath>
</defs>
</svg>
