<svg width="10" height="10" viewBox="0 0 10 10" fill="none" xmlns="http://www.w3.org/2000/svg">
<g clip-path="url(#clip0_2_460)">
<path d="M8.32782 5.41308C8.32782 7.49503 6.87045 8.53601 5.13826 9.13978C5.04756 9.17052 4.94903 9.16905 4.85928 9.13562C3.12293 8.53601 1.66556 7.49503 1.66556 5.41308V2.49833C1.66556 2.3879 1.70943 2.28199 1.78752 2.2039C1.8656 2.12581 1.97152 2.08194 2.08195 2.08194C2.91473 2.08194 3.95571 1.58227 4.68023 0.949357C4.76845 0.87399 4.88066 0.832581 4.99669 0.832581C5.11272 0.832581 5.22493 0.87399 5.31315 0.949357C6.04183 1.58644 7.07865 2.08194 7.91143 2.08194C8.02187 2.08194 8.12778 2.12581 8.20587 2.2039C8.28395 2.28199 8.32782 2.3879 8.32782 2.49833V5.41308Z" stroke="white" stroke-width="0.832783" stroke-linecap="round" stroke-linejoin="round"/>
<path d="M3.74753 4.99672L4.58031 5.82951L6.24588 4.16394" stroke="white" stroke-width="0.832783" stroke-linecap="round" stroke-linejoin="round"/>
</g>
<defs>
<clipPath id="clip0_2_460">
<rect width="9.9934" height="9.9934" fill="white"/>
</clipPath>
</defs>
</svg>
