<svg width="24" height="24" viewBox="0 0 24 24" fill="none" xmlns="http://www.w3.org/2000/svg">
<path d="M12 22C17.5228 22 22 17.5228 22 12C22 6.47715 17.5228 2 12 2C6.47715 2 2 6.47715 2 12C2 17.5228 6.47715 22 12 22Z" stroke="#90A1B9" stroke-width="1.99993" stroke-linecap="round" stroke-linejoin="round"/>
<path d="M12 18C15.3137 18 18 15.3137 18 12C18 8.68629 15.3137 6 12 6C8.68629 6 6 8.68629 6 12C6 15.3137 8.68629 18 12 18Z" stroke="#90A1B9" stroke-width="1.99993" stroke-linecap="round" stroke-linejoin="round"/>
<path d="M11.9996 13.9998C13.1042 13.9998 13.9996 13.1043 13.9996 11.9998C13.9996 10.8952 13.1042 9.99976 11.9996 9.99976C10.8951 9.99976 9.99965 10.8952 9.99965 11.9998C9.99965 13.1043 10.8951 13.9998 11.9996 13.9998Z" stroke="#90A1B9" stroke-width="1.99993" stroke-linecap="round" stroke-linejoin="round"/>
</svg>
