<svg width="28" height="28" viewBox="0 0 28 28" fill="none" xmlns="http://www.w3.org/2000/svg">
<path d="M11.6655 17.1017V18.9985C11.6611 19.3982 11.5541 19.79 11.3547 20.1365C11.1554 20.4829 10.8703 20.7723 10.527 20.977C9.79804 21.5169 9.20508 22.2193 8.79521 23.0286C8.38534 23.8378 8.16985 24.7314 8.16587 25.6385" stroke="#FE9A00" stroke-width="2.33311" stroke-linecap="round" stroke-linejoin="round"/>
<path d="M16.3317 17.1017V18.9985C16.3361 19.3982 16.4432 19.79 16.6425 20.1365C16.8419 20.4829 17.1269 20.7723 17.4703 20.977C18.1992 21.5169 18.7922 22.2193 19.2021 23.0286C19.6119 23.8378 19.8274 24.7314 19.8314 25.6385" stroke="#FE9A00" stroke-width="2.33311" stroke-linecap="round" stroke-linejoin="round"/>
<path d="M20.9979 10.499H22.7478C23.5212 10.499 24.263 10.1917 24.81 9.64477C25.3569 9.09785 25.6642 8.35605 25.6642 7.58258C25.6642 6.80911 25.3569 6.06731 24.81 5.52039C24.263 4.97346 23.5212 4.6662 22.7478 4.6662H20.9979" stroke="#FE9A00" stroke-width="2.33311" stroke-linecap="round" stroke-linejoin="round"/>
<path d="M4.66621 25.6642H23.3311" stroke="#FE9A00" stroke-width="2.33311" stroke-linecap="round" stroke-linejoin="round"/>
<path d="M6.99931 10.499C6.99931 12.3553 7.73674 14.1356 9.04937 15.4483C10.362 16.7609 12.1423 17.4983 13.9986 17.4983C15.855 17.4983 17.6353 16.7609 18.9479 15.4483C20.2605 14.1356 20.9979 12.3553 20.9979 10.499V3.49968C20.9979 3.19029 20.875 2.89358 20.6563 2.67481C20.4375 2.45603 20.1408 2.33313 19.8314 2.33313H8.16587C7.85648 2.33313 7.55976 2.45603 7.34099 2.67481C7.12222 2.89358 6.99931 3.19029 6.99931 3.49968V10.499Z" stroke="#FE9A00" stroke-width="2.33311" stroke-linecap="round" stroke-linejoin="round"/>
<path d="M6.99932 10.499H5.24949C4.47602 10.499 3.73422 10.1917 3.1873 9.64477C2.64037 9.09785 2.33311 8.35605 2.33311 7.58258C2.33311 6.80911 2.64037 6.06731 3.1873 5.52039C3.73422 4.97346 4.47602 4.6662 5.24949 4.6662H6.99932" stroke="#FE9A00" stroke-width="2.33311" stroke-linecap="round" stroke-linejoin="round"/>
</svg>
