<svg width="32" height="32" viewBox="0 0 32 32" fill="none" xmlns="http://www.w3.org/2000/svg">
<path d="M20.633 17.1842L22.6527 28.5506C22.6754 28.6844 22.6566 28.822 22.5989 28.9448C22.5412 29.0677 22.4474 29.1701 22.33 29.2382C22.2126 29.3063 22.0772 29.337 21.9419 29.3261C21.8066 29.3151 21.6779 29.2632 21.5729 29.1771L16.8002 25.595C16.5698 25.4229 16.29 25.3299 16.0024 25.3299C15.7148 25.3299 15.4349 25.4229 15.2045 25.595L10.4238 29.1758C10.3189 29.2617 10.1904 29.3136 10.0552 29.3245C9.92008 29.3354 9.78483 29.3049 9.6675 29.2369C9.55017 29.169 9.45634 29.0669 9.39854 28.9443C9.34074 28.8216 9.32171 28.6843 9.34399 28.5506L11.3624 17.1842" stroke="#E17100" stroke-width="2.66628" stroke-linecap="round" stroke-linejoin="round"/>
<path d="M15.9977 18.6639C20.4153 18.6639 23.9965 15.0827 23.9965 10.6651C23.9965 6.24746 20.4153 2.66626 15.9977 2.66626C11.58 2.66626 7.99884 6.24746 7.99884 10.6651C7.99884 15.0827 11.58 18.6639 15.9977 18.6639Z" stroke="#E17100" stroke-width="2.66628" stroke-linecap="round" stroke-linejoin="round"/>
</svg>
