<svg width="12" height="12" viewBox="0 0 12 12" fill="none" xmlns="http://www.w3.org/2000/svg">
<g clip-path="url(#clip0_3_125)">
<path d="M1.99906 6.99668C1.90448 6.99701 1.81176 6.97049 1.73166 6.92021C1.65156 6.86993 1.58737 6.79796 1.54655 6.71265C1.50572 6.62734 1.48994 6.5322 1.50104 6.43828C1.51214 6.34436 1.54966 6.25552 1.60924 6.18207L6.55689 1.08449C6.59401 1.04165 6.64458 1.0127 6.70032 1.0024C6.75605 0.99209 6.81363 1.00104 6.86361 1.02777C6.91359 1.0545 6.953 1.09743 6.97536 1.14951C6.99773 1.2016 7.00172 1.25973 6.98669 1.31438L6.02714 4.32295C5.99885 4.39868 5.98935 4.48014 5.99945 4.56034C6.00956 4.64055 6.03897 4.71711 6.08516 4.78345C6.13136 4.84979 6.19295 4.90394 6.26467 4.94124C6.33639 4.97855 6.41608 4.9979 6.49692 4.99763H9.99526C10.0898 4.99731 10.1826 5.02383 10.2627 5.07411C10.3428 5.12439 10.4069 5.19636 10.4478 5.28167C10.4886 5.36698 10.5044 5.46212 10.4933 5.55604C10.4822 5.64996 10.4447 5.7388 10.3851 5.81225L5.43742 10.9098C5.40031 10.9527 5.34974 10.9816 5.294 10.9919C5.23827 11.0022 5.18068 10.9933 5.1307 10.9665C5.08073 10.9398 5.04132 10.8969 5.01896 10.8448C4.99659 10.7927 4.9926 10.7346 5.00763 10.6799L5.96717 7.67136C5.99547 7.59564 6.00497 7.51418 5.99486 7.43397C5.98476 7.35377 5.95535 7.27721 5.90916 7.21087C5.86296 7.14453 5.80136 7.09038 5.72965 7.05308C5.65793 7.01577 5.57823 6.99642 5.4974 6.99668H1.99906Z" stroke="#009966" stroke-width="0.999526" stroke-linecap="round" stroke-linejoin="round"/>
</g>
<defs>
<clipPath id="clip0_3_125">
<rect width="11.9943" height="11.9943" fill="white"/>
</clipPath>
</defs>
</svg>
