<svg width="12" height="12" viewBox="0 0 12 12" fill="none" xmlns="http://www.w3.org/2000/svg">
<g clip-path="url(#clip0_3_321)">
<path d="M9.99526 4.99761C9.99526 7.49293 7.22707 10.0917 6.29751 10.8943C6.21092 10.9594 6.1055 10.9946 5.99716 10.9946C5.88881 10.9946 5.7834 10.9594 5.6968 10.8943C4.76724 10.0917 1.99905 7.49293 1.99905 4.99761C1.99905 3.93725 2.42028 2.92032 3.17007 2.17053C3.91986 1.42074 4.93679 0.999512 5.99716 0.999512C7.05752 0.999512 8.07445 1.42074 8.82424 2.17053C9.57403 2.92032 9.99526 3.93725 9.99526 4.99761Z" stroke="#62748E" stroke-width="0.999526" stroke-linecap="round" stroke-linejoin="round"/>
<path d="M5.99715 6.49687C6.82519 6.49687 7.49644 5.82561 7.49644 4.99758C7.49644 4.16955 6.82519 3.49829 5.99715 3.49829C5.16912 3.49829 4.49786 4.16955 4.49786 4.99758C4.49786 5.82561 5.16912 6.49687 5.99715 6.49687Z" stroke="#62748E" stroke-width="0.999526" stroke-linecap="round" stroke-linejoin="round"/>
</g>
<defs>
<clipPath id="clip0_3_321">
<rect width="11.9943" height="11.9943" fill="white"/>
</clipPath>
</defs>
</svg>
