<svg width="12" height="12" viewBox="0 0 12 12" fill="none" xmlns="http://www.w3.org/2000/svg">
<g clip-path="url(#clip0_3_413)">
<path d="M5.75977 1.14689C5.78167 1.10264 5.8155 1.06539 5.85745 1.03935C5.89939 1.01331 5.94778 0.999512 5.99715 0.999512C6.04653 0.999512 6.09492 1.01331 6.13686 1.03935C6.17881 1.06539 6.21264 1.10264 6.23454 1.14689L7.38899 3.48528C7.46505 3.63919 7.57731 3.77235 7.71615 3.87332C7.85499 3.9743 8.01626 4.04007 8.18611 4.065L10.7679 4.44282C10.8168 4.44991 10.8628 4.47055 10.9006 4.5024C10.9384 4.53424 10.9665 4.57604 10.9818 4.62304C10.9971 4.67005 10.9989 4.7204 10.9871 4.76839C10.9752 4.81638 10.9502 4.8601 10.9148 4.89461L9.04771 6.71275C8.92457 6.83274 8.83244 6.98086 8.77925 7.14436C8.72606 7.30785 8.7134 7.48183 8.74235 7.6513L9.18314 10.2201C9.19178 10.269 9.1865 10.3193 9.1679 10.3654C9.1493 10.4114 9.11814 10.4513 9.07796 10.4805C9.03779 10.5096 8.99022 10.5269 8.94069 10.5304C8.89116 10.5338 8.84165 10.5233 8.79782 10.4999L6.48992 9.28653C6.33785 9.20668 6.16866 9.16496 5.9969 9.16496C5.82515 9.16496 5.65596 9.20668 5.50389 9.28653L3.19648 10.4999C3.15267 10.5231 3.10323 10.5336 3.05378 10.5301C3.00433 10.5265 2.95686 10.5092 2.91676 10.4801C2.87667 10.4509 2.84557 10.4111 2.82699 10.3651C2.80841 10.3192 2.8031 10.2689 2.81167 10.2201L3.25196 7.6518C3.28104 7.48225 3.26844 7.30816 3.21524 7.14456C3.16205 6.98097 3.06985 6.83277 2.9466 6.71275L1.07949 4.89511C1.0438 4.86064 1.01851 4.81684 1.0065 4.76871C0.994494 4.72057 0.996246 4.67003 1.01156 4.62283C1.02687 4.57564 1.05513 4.5337 1.09312 4.50179C1.13111 4.46987 1.17729 4.44927 1.22642 4.44232L3.80769 4.065C3.97774 4.04026 4.13923 3.97458 4.27826 3.87359C4.41729 3.7726 4.5297 3.63934 4.60581 3.48528L5.75977 1.14689Z" stroke="#E17100" stroke-width="0.999526" stroke-linecap="round" stroke-linejoin="round"/>
</g>
<defs>
<clipPath id="clip0_3_413">
<rect width="11.9943" height="11.9943" fill="white"/>
</clipPath>
</defs>
</svg>
