<svg width="20" height="20" viewBox="0 0 20 20" fill="none" xmlns="http://www.w3.org/2000/svg">
<g clip-path="url(#clip0_5_127)">
<path d="M16.6587 10.8282C16.6587 14.9929 13.7435 17.0753 10.2784 18.283C10.097 18.3445 9.89989 18.3416 9.72036 18.2747C6.24701 17.0753 3.33173 14.9929 3.33173 10.8282V4.99765C3.33173 4.77674 3.41948 4.56488 3.57569 4.40868C3.73189 4.25247 3.94376 4.16472 4.16466 4.16472C5.83054 4.16472 7.91288 3.16519 9.3622 1.89912C9.53866 1.74836 9.76313 1.66553 9.99523 1.66553C10.2273 1.66553 10.4518 1.74836 10.6283 1.89912C12.0859 3.17352 14.1599 4.16472 15.8258 4.16472C16.0467 4.16472 16.2586 4.25247 16.4148 4.40868C16.571 4.56488 16.6587 4.77674 16.6587 4.99765V10.8282Z" stroke="#45556C" stroke-width="1.66588" stroke-linecap="round" stroke-linejoin="round"/>
</g>
<defs>
<clipPath id="clip0_5_127">
<rect width="19.9905" height="19.9905" fill="white"/>
</clipPath>
</defs>
</svg>
