<svg width="20" height="20" viewBox="0 0 20 20" fill="none" xmlns="http://www.w3.org/2000/svg">
<path d="M8.55261 17.4917C8.69883 17.7449 8.90912 17.9552 9.16236 18.1014C9.4156 18.2476 9.70285 18.3246 9.99526 18.3246C10.2877 18.3246 10.5749 18.2476 10.8282 18.1014C11.0814 17.9552 11.2917 17.7449 11.4379 17.4917" stroke="#45556C" stroke-width="1.66588" stroke-linecap="round" stroke-linejoin="round"/>
<path d="M2.71707 12.7656C2.60826 12.8849 2.53645 13.0332 2.51038 13.1925C2.48431 13.3518 2.50511 13.5153 2.57023 13.663C2.63536 13.8108 2.74201 13.9364 2.87721 14.0246C3.01241 14.1128 3.17034 14.1598 3.33178 14.16H16.6588C16.8202 14.16 16.9782 14.1132 17.1135 14.0251C17.2487 13.9371 17.3555 13.8116 17.4208 13.664C17.4861 13.5163 17.5071 13.3529 17.4813 13.1936C17.4554 13.0342 17.3838 12.8859 17.2752 12.7665C16.1674 11.6245 14.9929 10.4109 14.9929 6.66352C14.9929 5.33807 14.4664 4.0669 13.5291 3.12966C12.5919 2.19243 11.3207 1.66589 9.99528 1.66589C8.66983 1.66589 7.39866 2.19243 6.46143 3.12966C5.52419 4.0669 4.99766 5.33807 4.99766 6.66352C4.99766 10.4109 3.82238 11.6245 2.71707 12.7656Z" stroke="#45556C" stroke-width="1.66588" stroke-linecap="round" stroke-linejoin="round"/>
</svg>
