<svg width="20" height="20" viewBox="0 0 20 20" fill="none" xmlns="http://www.w3.org/2000/svg">
<path d="M17.4792 10.4001C17.4011 11.8462 16.9058 13.2387 16.0532 14.4093C15.2007 15.58 14.0272 16.4786 12.6748 16.9966C11.3224 17.5145 9.8489 17.6297 8.43245 17.3281C7.016 17.0265 5.71722 16.321 4.69313 15.2971C3.66904 14.2731 2.96347 12.9744 2.66173 11.558C2.35998 10.1415 2.47496 8.66803 2.99279 7.31556C3.51061 5.96309 4.4091 4.78957 5.57964 3.93685C6.75018 3.08412 8.14266 2.58871 9.58876 2.51049C9.9261 2.49217 10.1027 2.89364 9.9236 3.17934C9.32462 4.13768 9.06815 5.27074 9.19602 6.39361C9.3239 7.51648 9.82858 8.56285 10.6277 9.36197C11.4268 10.1611 12.4732 10.6658 13.5961 10.7936C14.7189 10.9215 15.852 10.665 16.8103 10.0661C17.0969 9.88699 17.4975 10.0627 17.4792 10.4001Z" stroke="#45556C" stroke-width="1.66588" stroke-linecap="round" stroke-linejoin="round"/>
</svg>
