<svg width="20" height="20" viewBox="0 0 20 20" fill="none" xmlns="http://www.w3.org/2000/svg">
<path d="M9.99527 18.3247C14.5955 18.3247 18.3247 14.5955 18.3247 9.99527C18.3247 5.39508 14.5955 1.66589 9.99527 1.66589C5.39508 1.66589 1.66589 5.39508 1.66589 9.99527C1.66589 14.5955 5.39508 18.3247 9.99527 18.3247Z" stroke="#45556C" stroke-width="1.66588" stroke-linecap="round" stroke-linejoin="round"/>
<path d="M7.57141 7.49639C7.76724 6.93971 8.15376 6.4703 8.66252 6.17129C9.17128 5.87229 9.76945 5.76299 10.3511 5.86275C10.9327 5.96252 11.4602 6.26491 11.8403 6.71636C12.2203 7.16782 12.4283 7.73921 12.4274 8.32932C12.4274 9.9952 9.92863 10.8281 9.92863 10.8281" stroke="#45556C" stroke-width="1.66588" stroke-linecap="round" stroke-linejoin="round"/>
<path d="M9.99524 14.1599H10.0036" stroke="#45556C" stroke-width="1.66588" stroke-linecap="round" stroke-linejoin="round"/>
</svg>
