<svg width="20" height="20" viewBox="0 0 20 20" fill="none" xmlns="http://www.w3.org/2000/svg">
<path d="M1.66589 7.91285C1.66591 6.98596 1.94709 6.08087 2.47229 5.31714C2.99749 4.5534 3.74201 3.96694 4.6075 3.63521C5.473 3.30349 6.41877 3.2421 7.31989 3.45917C8.221 3.67623 9.03508 4.16153 9.6546 4.85097C9.69824 4.89763 9.75099 4.93482 9.80959 4.96025C9.86819 4.98568 9.93139 4.9988 9.99527 4.9988C10.0592 4.9988 10.1224 4.98568 10.181 4.96025C10.2396 4.93482 10.2923 4.89763 10.3359 4.85097C10.9535 4.15705 11.7678 3.66767 12.6704 3.44797C13.5729 3.22827 14.521 3.28867 15.3884 3.62112C16.2558 3.95358 17.0014 4.54233 17.526 5.309C18.0505 6.07568 18.3291 6.98393 18.3247 7.91285C18.3247 9.82028 17.0752 11.2446 15.8258 12.494L11.2513 16.9194C11.0961 17.0977 10.9048 17.2409 10.69 17.3395C10.4752 17.4381 10.2419 17.4898 10.0055 17.4913C9.76916 17.4928 9.5352 17.444 9.31917 17.3481C9.10313 17.2523 8.90998 17.1115 8.75253 16.9352L4.16471 12.494C2.9153 11.2446 1.66589 9.82861 1.66589 7.91285Z" stroke="#45556C" stroke-width="1.66588" stroke-linecap="round" stroke-linejoin="round"/>
</svg>
