<svg width="24" height="24" viewBox="0 0 24 24" fill="none" xmlns="http://www.w3.org/2000/svg">
<path d="M15.4768 12.8895L16.9918 21.4155C17.0087 21.5159 16.9946 21.6191 16.9514 21.7113C16.9081 21.8035 16.8377 21.8802 16.7497 21.9313C16.6616 21.9824 16.56 22.0054 16.4586 21.9972C16.3571 21.9891 16.2605 21.9501 16.1818 21.8855L12.6018 19.1985C12.4289 19.0694 12.219 18.9996 12.0033 18.9996C11.7875 18.9996 11.5776 19.0694 11.4048 19.1985L7.81875 21.8845C7.74007 21.949 7.64361 21.9879 7.54225 21.9961C7.44088 22.0043 7.33942 21.9814 7.25141 21.9304C7.16341 21.8794 7.09303 21.8029 7.04967 21.7109C7.00631 21.6189 6.99204 21.5158 7.00875 21.4155L8.52275 12.8895" stroke="white" stroke-width="2.49991" stroke-linecap="round" stroke-linejoin="round"/>
<path d="M12 14C15.3137 14 18 11.3137 18 8C18 4.68629 15.3137 2 12 2C8.68629 2 6 4.68629 6 8C6 11.3137 8.68629 14 12 14Z" stroke="white" stroke-width="2.49991" stroke-linecap="round" stroke-linejoin="round"/>
</svg>
