<svg width="14" height="14" viewBox="0 0 14 14" fill="none" xmlns="http://www.w3.org/2000/svg">
<g clip-path="url(#clip0_5_263)">
<path d="M7.58264 12.2488H12.2489" stroke="white" stroke-width="1.16655" stroke-linecap="round" stroke-linejoin="round"/>
<path d="M12.3503 3.97327C12.6587 3.66496 12.832 3.24678 12.832 2.81071C12.8321 2.37465 12.6589 1.95642 12.3506 1.64804C12.0423 1.33965 11.6241 1.16638 11.1881 1.16632C10.752 1.16627 10.3338 1.33944 10.0254 1.64775L2.24098 9.4339C2.10556 9.56893 2.00541 9.73518 1.94934 9.91802L1.17884 12.4564C1.16376 12.5069 1.16262 12.5605 1.17554 12.6115C1.18846 12.6625 1.21495 12.7091 1.25221 12.7463C1.28947 12.7835 1.3361 12.8099 1.38716 12.8228C1.43822 12.8356 1.4918 12.8344 1.54222 12.8192L4.08122 12.0493C4.26388 11.9938 4.43012 11.8942 4.56534 11.7594L12.3503 3.97327Z" stroke="white" stroke-width="1.16655" stroke-linecap="round" stroke-linejoin="round"/>
</g>
<defs>
<clipPath id="clip0_5_263">
<rect width="13.9986" height="13.9986" fill="white"/>
</clipPath>
</defs>
</svg>
