<svg width="16" height="16" viewBox="0 0 16 16" fill="none" xmlns="http://www.w3.org/2000/svg">
<path d="M9.32691 2.66541C9.56732 2.6654 9.80326 2.73043 10.0097 2.85361C10.2162 2.97678 10.3855 3.15351 10.4997 3.36507L10.8235 3.96479C10.9377 4.17635 11.107 4.35308 11.3135 4.47625C11.52 4.59943 11.7559 4.66446 11.9963 4.66446H13.327C13.6805 4.66446 14.0194 4.80487 14.2694 5.0548C14.5193 5.30473 14.6597 5.6437 14.6597 5.99716V11.9943C14.6597 12.3478 14.5193 12.6867 14.2694 12.9367C14.0194 13.1866 13.6805 13.327 13.327 13.327H2.6654C2.31195 13.327 1.97297 13.1866 1.72304 12.9367C1.47311 12.6867 1.3327 12.3478 1.3327 11.9943V5.99716C1.3327 5.6437 1.47311 5.30473 1.72304 5.0548C1.97297 4.80487 2.31195 4.66446 2.6654 4.66446H3.99611C4.23627 4.66447 4.47198 4.59958 4.6783 4.47666C4.88463 4.35373 5.0539 4.17733 5.16822 3.96612L5.49406 3.36374C5.60838 3.15253 5.77765 2.97613 5.98397 2.85321C6.1903 2.73028 6.426 2.66539 6.66617 2.66541H9.32691Z" stroke="white" stroke-width="1.3327" stroke-linecap="round" stroke-linejoin="round"/>
<path d="M7.99618 10.6616C9.10023 10.6616 9.99523 9.76661 9.99523 8.66256C9.99523 7.55852 9.10023 6.66351 7.99618 6.66351C6.89214 6.66351 5.99713 7.55852 5.99713 8.66256C5.99713 9.76661 6.89214 10.6616 7.99618 10.6616Z" stroke="white" stroke-width="1.3327" stroke-linecap="round" stroke-linejoin="round"/>
</svg>
