<svg width="12" height="12" viewBox="0 0 12 12" fill="none" xmlns="http://www.w3.org/2000/svg">
<g clip-path="url(#clip0_2_522)">
<path d="M9.99338 4.99669C9.99338 7.49154 7.2257 10.0898 6.29632 10.8923C6.20974 10.9574 6.10434 10.9926 5.99602 10.9926C5.88769 10.9926 5.7823 10.9574 5.69571 10.8923C4.76633 10.0898 1.99866 7.49154 1.99866 4.99669C1.99866 3.93652 2.41981 2.91978 3.16946 2.17013C3.91911 1.42048 4.93585 0.999329 5.99602 0.999329C7.05618 0.999329 8.07293 1.42048 8.82258 2.17013C9.57223 2.91978 9.99338 3.93652 9.99338 4.99669Z" stroke="white" stroke-width="0.99934" stroke-linecap="round" stroke-linejoin="round"/>
<path d="M5.99602 6.4957C6.8239 6.4957 7.49503 5.82457 7.49503 4.99669C7.49503 4.16881 6.8239 3.49768 5.99602 3.49768C5.16814 3.49768 4.49701 4.16881 4.49701 4.99669C4.49701 5.82457 5.16814 6.4957 5.99602 6.4957Z" stroke="white" stroke-width="0.99934" stroke-linecap="round" stroke-linejoin="round"/>
</g>
<defs>
<clipPath id="clip0_2_522">
<rect width="11.9921" height="11.9921" fill="white"/>
</clipPath>
</defs>
</svg>
